# xmcd CD database file
#
# Track frame offsets:
#	150
#	16012
#	33952
#	56135
#	85650
#	105047
#	124722
#	147167
#	167242
#	186510
#
# Disc length: 2784 seconds
#
# Revision: 0
# Processed by: cddbd v1.5.1PL0 Copyright (c) Steve Scherf et al.
# Submitted via: CDex 1.51
#
DISCID=770ade0a
DTITLE=相曽晴日 - 太陽のご馳走
DYEAR=1997
DGENRE=JPop
TTITLE0=おいしい時間
TTITLE1=8月のプールサイド〜その後
TTITLE2=ブルー・ベルベット
TTITLE3=Silent Emergency
TTITLE4=恋人の名はコンスタンチン・チェルネンコ
TTITLE5=欲しいモノ
TTITLE6=ココロがカモシカの日
TTITLE7=”R”の残像
TTITLE8=それぞれのStyle
TTITLE9=おしゃべりやめて
EXTD=YEAR: 1997
EXTT0=
EXTT1=
EXTT2=
EXTT3=
EXTT4=
EXTT5=
EXTT6=
EXTT7=
EXTT8=
EXTT9=
PLAYORDER=
